<?xml version="1.0" encoding="utf-8"?>
<!-- Generator: Adobe Illustrator 17.0.0, SVG Export Plug-In . SVG Version: 6.00 Build 0)  -->
<!DOCTYPE svg PUBLIC "-//W3C//DTD SVG 1.1//EN" "http://www.w3.org/Graphics/SVG/1.1/DTD/svg11.dtd">
<svg version="1.1" id="Layer_1" xmlns="http://www.w3.org/2000/svg" xmlns:xlink="http://www.w3.org/1999/xlink" x="0px" y="0px"
	 width="343.912px" height="228.5px" viewBox="688.167 227 343.912 228.5" enable-background="new 688.167 227 343.912 228.5"
	 xml:space="preserve">
<g>
	<g>
		<path fill="#FED09A" d="M929.335,437.961c-0.161,0-0.323-0.009-0.486-0.03c-2.157-0.265-3.69-2.229-3.424-4.386
			c0.061-0.501,6.015-50.556-6.028-91.366c-0.615-2.085,0.576-4.273,2.66-4.888c2.088-0.612,4.273,0.576,4.888,2.66
			c12.514,42.408,6.55,92.446,6.29,94.556C932.989,436.501,931.293,437.961,929.335,437.961z"/>
	</g>
	<g>
		<path fill="#FED09A" d="M885.312,425.811c-1.031,0-2.06-0.402-2.832-1.203c-1.509-1.563-1.464-4.054,0.099-5.563l0,0
			c0.479-0.462,47.764-46.734,36.163-86.048c-0.615-2.085,0.576-4.273,2.66-4.888c2.088-0.613,4.273,0.576,4.888,2.66
			c5.41,18.335,0.435,40.465-14.386,63.999c-10.982,17.437-23.339,29.437-23.86,29.939
			C887.28,425.445,886.295,425.811,885.312,425.811z"/>
	</g>
	<g>
		<path fill="#C59B6D" d="M929.351,258.72c0,0,11.7-6.025,4.752-13.815c-6.947-7.791-14.239-0.512-14.239-0.512
			s-20.157-5.3-19.674,7.105c-2.142,8.309-11.039,4.043-3.389,28.199c7.651,24.155,1.093,27.107-0.109,33.227
			c0,0,7.214-1.53,8.307-6.121c0,0-0.219,4.918-2.186,6.668c0,0,4.97-2.757,8.853-9.515c3.884-6.757,5.47-35.408,5.47-35.408
			L929.351,258.72z"/>
	</g>
	<g>
		<path fill="#FED09A" d="M909.672,270.912l2.133,0.933v-3.069l-0.8-3.599c0,0-0.533-8.668,4.001-9.601
			c0,0,7.868,2.667,12.535-1.734c0,0,2,2.801,1.867,6.268c-0.133,3.466,1.734,4.133,3.467,5.067
			c1.734,0.934-0.667,3.068-0.667,3.068s1.67,8.906,0.775,11.573c-0.726,2.16-5.225,1.64-11.177,1.362
			c-0.397,1.571-1.693,6.999-1.067,8.669h-8.667c0,0-2.04-4.363-1.036-10.141c-0.834-0.774-0.698-1.327-0.698-1.327
			s-5.322,1.866-6.122-5.068C903.417,266.378,909.672,270.912,909.672,270.912z"/>
	</g>
	<g>
		<path fill="#FED09A" d="M928.343,303.581c-8.393,0-14.899-2.953-15.312-3.145c-1.971-0.915-2.827-3.255-1.912-5.226
			c0.913-1.967,3.245-2.825,5.215-1.916c0.127,0.057,12.337,5.512,23.037-0.218c8.497-4.549,14.1-14.922,16.654-30.828
			c0.344-2.146,2.364-3.608,4.509-3.261c2.145,0.344,3.606,2.363,3.261,4.509c-2.971,18.509-9.966,30.81-20.79,36.562
			C938.01,302.711,932.898,303.581,928.343,303.581z"/>
	</g>
	<g>
		<path fill="#39B44A" d="M931.298,332.904c0,0,11.531,28.364,5.629,53.503l-37.599,2.186c0,0,9.072-45.142,6.722-55.689
			C903.7,322.358,931.298,332.904,931.298,332.904z"/>
	</g>
	<g>
		<path fill="#39B44A" d="M923.171,287.477c0,0,3.418,7.008,7.845,10.288c4.427,3.279,5.364,7.596,2.577,12.842
			c-2.787,5.246-2.295,17.706-2.295,17.706h-25.248c0,0,2.459-12.787,0.984-21.313c-1.475-8.526,2.345-19.523,2.345-19.523H923.171z
			"/>
	</g>
	<g>
		<g>
			<path fill="#39B44A" d="M936.854,430.246v8.028h10.266c3.706,0,6.711,3.005,6.711,6.712c0,0.626-0.093,1.231-0.253,1.807H922.95
				c-0.161-0.576-0.253-1.181-0.253-1.807v-14.74H936.854z"/>
		</g>
		<g>
			<path fill="#42210B" d="M953.815,445.384c-0.03,0.485-0.112,0.957-0.238,1.409H922.95c-0.127-0.453-0.209-0.924-0.239-1.409
				H953.815z"/>
		</g>
	</g>
	<g>
		<g>
			<path fill="#39B44A" d="M893.412,424.565l-5.159,6.05l7.736,6.598c2.793,2.382,3.126,6.577,0.744,9.37
				c-0.403,0.473-0.861,0.868-1.353,1.2l-23.08-19.684c0.249-0.538,0.568-1.052,0.971-1.525l9.474-11.108L893.412,424.565z"/>
		</g>
		<g>
			<path fill="#42210B" d="M896.466,446.875c-0.334,0.346-0.699,0.648-1.086,0.909l-23.08-19.684
				c0.196-0.423,0.436-0.831,0.726-1.216L896.466,446.875z"/>
		</g>
	</g>
	<g>
		<g>
			<path fill="#AB5B24" d="M917.532,361.598v-5.369h-10.844v5.369h-3.759v-7.419c0-0.944,0.765-1.708,1.708-1.708h14.944
				c0.943,0,1.708,0.764,1.708,1.708v7.419H917.532z"/>
		</g>
		<g>
			<path fill="#AB5B24" d="M879.051,399.582c0,0.943,0.765,1.708,1.708,1.708h62.702c0.944,0,1.708-0.765,1.708-1.708v-36.276
				c0-0.942-0.764-1.709-1.708-1.709h-62.702c-0.943,0-1.708,0.766-1.708,1.709V399.582z"/>
		</g>
		<g>
			<path fill="#572300" d="M879.576,368.072c3.341,0,6.049-2.709,6.049-6.051c0-0.142-0.012-0.281-0.021-0.423h53.013
				c-0.009,0.142-0.021,0.281-0.021,0.423c0,3.342,2.708,6.051,6.049,6.051c0.178,0,0.352-0.012,0.525-0.027v26.798
				c-0.173-0.015-0.347-0.026-0.525-0.026c-3.34,0-6.049,2.708-6.049,6.049c0,0.143,0.011,0.284,0.021,0.425h-53.013
				c0.009-0.141,0.021-0.282,0.021-0.425c0-3.341-2.709-6.049-6.049-6.049c-0.177,0-0.351,0.011-0.525,0.026v-26.798
				C879.224,368.06,879.399,368.072,879.576,368.072z"/>
		</g>
		<g>
			<g>
				<rect x="928.666" y="361.598" fill="#AB5B24" width="4.882" height="39.693"/>
			</g>
			<g>
				<rect x="890.672" y="361.598" fill="#AB5B24" width="4.882" height="39.693"/>
			</g>
		</g>
	</g>
	<g>
		<g>
			<g>
				<path fill="#603813" d="M860.541,432.647v8.028h10.266c3.706,0,6.711,3.005,6.711,6.711c0,0.627-0.092,1.231-0.253,1.808
					h-30.627c-0.161-0.577-0.253-1.181-0.253-1.808v-14.739H860.541z"/>
			</g>
			<g>
				<path fill="#42210B" d="M877.503,447.784c-0.03,0.485-0.112,0.957-0.239,1.41h-30.627c-0.127-0.453-0.209-0.925-0.239-1.41
					H877.503z"/>
			</g>
		</g>
		<g>
			<g>
				<path fill="#603813" d="M817.099,426.966l-5.16,6.05l7.736,6.598c2.793,2.382,3.126,6.578,0.744,9.372
					c-0.403,0.472-0.861,0.868-1.353,1.199l-23.08-19.684c0.248-0.538,0.567-1.053,0.971-1.526l9.473-11.107L817.099,426.966z"/>
			</g>
			<g>
				<path fill="#42210B" d="M820.153,449.274c-0.335,0.348-0.7,0.649-1.086,0.91l-23.08-19.684c0.195-0.423,0.436-0.83,0.726-1.216
					L820.153,449.274z"/>
			</g>
		</g>
		<g>
			<path fill="#603813" d="M852.728,245.459c0,0,4.4-2.933,4.934-6.534c0,0-3.467,2.667-4.934,2.534c0,0,2.934-3.601,1.2-6.802
				c0,0-0.934,4.001-2.801,4.001c0,0,1.067-5.333-2.8-7.467c0,0,0.667,5.066-4,4.934c-4.668-0.134-25.46-1.468-26.198,12.801
				c0,0-7.14,7.201,2.328,19.337c9.468,12.134,11.068,7.6,12.002,13.869l1.2-1.2l1.067,0.534l0.8-1.068l1.441,0.324L852.728,245.459
				z"/>
		</g>
		<g>
			<path fill="#FED09A" d="M834.859,262.528l2.934,3.734l1.734-1.2l-1.6-6.4c0,0-2.267-10.536,2.267-11.469
				c0,0,7.867,2.667,12.535-1.733c0,0,2,2.801,1.867,6.268c-0.133,3.468,1.734,4.134,3.467,5.067
				c1.734,0.934-0.666,3.067-0.666,3.067s2.191,8.136,1.296,10.801c-0.726,2.161-6.201,4.058-12.152,3.78
				c-0.397,1.571-1.238,5.353-0.612,7.023h-8.668c0,0-2.04-4.363-1.036-10.141c-0.834-0.774-0.698-1.328-0.698-1.328
				s-8.534,1.867-9.335-5.067C825.391,257.994,834.859,262.528,834.859,262.528z"/>
		</g>
		<g>
			<path fill="#FED09A" d="M879.046,346.902c-0.932,0-1.875-0.265-2.712-0.818c-28.521-18.891-41.228-50.373-41.755-51.704
				c-1-2.525,0.237-5.383,2.763-6.384c2.524-0.999,5.38,0.236,6.382,2.758l0,0c0.119,0.298,12.161,29.986,38.043,47.128
				c2.265,1.5,2.884,4.552,1.385,6.817C882.206,346.128,880.641,346.902,879.046,346.902z"/>
		</g>
		<g>
			<g>
				<polygon fill="#285C7D" points="816.393,429.317 840.246,388.904 846.384,354.228 829.594,351.256 823.994,382.894 
					801.709,420.65 				"/>
			</g>
		</g>
		<g>
			<path fill="#2D688D" d="M842.878,330.664c8.049,0,14.574,6.524,14.574,14.574v14.793l8.619,29.866l-3.613,46.789l-17-1.313
				l3.376-43.712l-11.439-17.91c-5.33-2.167-9.09-7.395-9.09-13.503v-15.009C828.304,337.188,834.829,330.664,842.878,330.664z"/>
		</g>
		<g>
			<path fill="#FF7257" d="M836.796,281.4h11.076c6.349,2.273,10.892,8.34,10.892,15.47v44.032c0,0.012-0.001,0.024-0.001,10.354
				h-32.858c0-10.329-0.001-10.342-0.001-10.354V296.87C825.904,289.74,830.447,283.673,836.796,281.4z"/>
		</g>
		<g>
			<g>
				<path fill="#603813" d="M827.004,341.983c14.166-7.027,24.099-27.043,25.518-42.335c0.674-7.267-0.701-12.586-3.874-14.976
					c-10.195-7.682-22.62,3.462-22.744,3.574l1.326,1.453c0.113-0.102,11.346-10.153,20.235-3.456
					c2.569,1.935,3.699,6.755,3.098,13.222c-1.369,14.754-10.883,34.032-24.433,40.754L827.004,341.983z"/>
			</g>
		</g>
		<g>
			<path fill="#603813" d="M818.299,287.619h6.321c0.954,0,1.862,0.19,2.696,0.526v59.572c-0.833,0.336-1.742,0.526-2.696,0.526
				h-6.321c-3.984,0-7.214-3.229-7.214-7.214v-46.197C811.085,290.848,814.315,287.619,818.299,287.619z"/>
		</g>
		<g>
			<path fill="#FED09A" d="M834.161,368.203c-2.606,0-4.781-2.047-4.909-4.679c-1.623-33.289,5.944-68.277,6.268-69.75
				c0.581-2.653,3.201-4.332,5.857-3.751c2.654,0.581,4.333,3.204,3.753,5.857c-0.076,0.348-7.61,35.214-6.051,67.166
				c0.132,2.713-1.96,5.02-4.673,5.152C834.323,368.202,834.242,368.203,834.161,368.203z"/>
		</g>
		<g>
			<path fill="#C05749" d="M843.948,286.103c6.254,1.792,7.287,10.45,2.416,22.012c-2.835,6.73-2.953,7.383-2.953,7.383
				l-13.74-0.269C829.671,315.23,823.814,280.331,843.948,286.103z"/>
		</g>
		<g>
			<g>
				<g>
					<path fill="#333333" d="M805.468,374.742l11.968,8.057l-41.965,62.335l-11.968-8.057c-7.211-4.854-9.121-14.635-4.266-21.847
						l24.386-36.222C788.477,371.797,798.257,369.887,805.468,374.742z"/>
				</g>
			</g>
			<g>
				<g>
					
						<rect x="753.492" y="402.177" transform="matrix(-0.5589 0.8293 -0.8293 -0.5589 1587.1266 -36.6621)" width="99.646" height="3.28"/>
				</g>
			</g>
			<g>
				<g>
					<circle fill="#333333" cx="831.159" cy="362.501" r="4.263"/>
				</g>
			</g>
			<g>
				<g>
					<path fill="#666666" d="M768.318,445.134c0-3.944,3.209-7.153,7.153-7.153c3.944,0,7.153,3.209,7.153,7.153
						c0,3.944-3.209,7.152-7.153,7.152C771.527,452.286,768.318,449.077,768.318,445.134z M771.365,445.134
						c0,2.263,1.842,4.104,4.106,4.104c2.263,0,4.105-1.841,4.105-4.104s-1.842-4.106-4.105-4.106
						C773.207,441.028,771.365,442.87,771.365,445.134z"/>
				</g>
			</g>
			<g>
				<g>
					
						<rect x="750.579" y="407.721" transform="matrix(-0.56 0.8285 -0.8285 -0.56 1567.8735 -15.8741)" fill="#666666" width="75.145" height="1.312"/>
				</g>
			</g>
		</g>
	</g>
	<g>
		<path fill="#8BC53F" d="M909.378,287.477c0,1.104,0.895,1.999,2,1.999h9.793c1.104,0,2-0.895,2-1.999l0,0
			c0-1.105-0.896-2.001-2-2.001h-9.793C910.273,285.476,909.378,286.372,909.378,287.477L909.378,287.477z"/>
	</g>
	<g>
		<rect x="906.049" y="328.313" fill="#8BC53F" width="25.248" height="4.591"/>
	</g>
	<g>
		<path fill="#FED09A" d="M911.053,359.344c-1.7,0-3.267-1.11-3.773-2.822c-12.888-43.678,3.725-63.456,4.438-64.276
			c1.426-1.64,3.912-1.812,5.551-0.387c1.633,1.42,1.812,3.891,0.405,5.531c-0.259,0.313-14.361,17.886-2.847,56.905
			c0.615,2.085-0.576,4.273-2.66,4.888C911.796,359.291,911.422,359.344,911.053,359.344z"/>
	</g>
</g>
</svg>
